<?xml version="1.0" encoding="UTF-8"?>
<svg xmlns="http://www.w3.org/2000/svg" xmlns:xlink="http://www.w3.org/1999/xlink" width="3000" height="3000" viewBox="0 0 3000 3000">
<rect x="-300" y="-300" width="3600" height="3600" fill="rgb(100%, 100%, 100%)" fill-opacity="1"/>
<path fill-rule="nonzero" fill="rgb(33.325195%, 59.959412%, 100%)" fill-opacity="1" d="M 2363.660156 693.308594 L 1008.53125 712.570312 C 954.824219 712.949219 911.226562 755.898438 910.789062 808.828125 L 898.707031 2264.328125 C 898.257812 2317.253906 941.152344 2359.542969 994.863281 2359.140625 L 2165.46875 2339.878906 C 2219.179688 2339.503906 2262.78125 2296.546875 2263.210938 2243.621094 L 2275.289062 788.121094 C 2326.46875 722.46875 2416.988281 688.539062 2363.660156 693.308594 "/>
<path fill-rule="nonzero" fill="rgb(21.556091%, 44.309998%, 78.514099%)" fill-opacity="1" d="M 2393.960938 693.308594 C 2321.441406 693.308594 2262.648438 763.300781 2262.648438 849.628906 C 2262.679688 850.921875 2262.710938 852.199219 2262.769531 853.488281 L 2525.109375 853.488281 C 2525.179688 852.199219 2525.230469 850.921875 2525.269531 849.628906 C 2525.269531 763.300781 2466.480469 693.308594 2393.960938 693.308594 "/>
<path fill-rule="nonzero" fill="rgb(100%, 100%, 100%)" fill-opacity="1" d="M 1143.859375 1703.371094 L 2036.550781 1694.609375 C 2048.078125 1694.5 2057.46875 1705.808594 2057.609375 1719.988281 L 2057.640625 1723 C 2057.78125 1737.171875 2048.609375 1748.671875 2037.089844 1748.789062 L 1144.390625 1757.539062 C 1132.871094 1757.660156 1123.480469 1746.339844 1123.339844 1732.160156 L 1123.308594 1729.148438 C 1123.171875 1714.980469 1132.339844 1703.480469 1143.859375 1703.371094 "/>
<path fill-rule="nonzero" fill="rgb(100%, 100%, 100%)" fill-opacity="1" d="M 1143.859375 1489.449219 L 2036.550781 1480.691406 C 2048.078125 1480.570312 2057.46875 1491.890625 2057.609375 1506.070312 L 2057.640625 1509.078125 C 2057.78125 1523.25 2048.609375 1534.75 2037.089844 1534.871094 L 1144.390625 1543.621094 C 1132.871094 1543.738281 1123.480469 1532.421875 1123.339844 1518.238281 L 1123.308594 1515.230469 C 1123.171875 1501.058594 1132.339844 1489.558594 1143.859375 1489.449219 "/>
<path fill-rule="nonzero" fill="rgb(100%, 100%, 100%)" fill-opacity="1" d="M 1143.859375 1275.519531 L 2036.550781 1266.769531 C 2048.078125 1266.648438 2057.46875 1277.96875 2057.609375 1292.148438 L 2057.640625 1295.160156 C 2057.78125 1309.328125 2048.609375 1320.828125 2037.089844 1320.949219 L 1144.390625 1329.699219 C 1132.871094 1329.820312 1123.480469 1318.5 1123.339844 1304.320312 L 1123.308594 1301.308594 C 1123.171875 1287.140625 1132.339844 1275.640625 1143.859375 1275.519531 "/>
<path fill-rule="nonzero" fill="rgb(100%, 100%, 100%)" fill-opacity="1" d="M 1143.859375 1061.601562 L 2036.550781 1052.851562 C 2048.078125 1052.730469 2057.46875 1064.050781 2057.609375 1078.230469 L 2057.640625 1081.238281 C 2057.78125 1095.410156 2048.609375 1106.910156 2037.089844 1107.03125 L 1144.390625 1115.78125 C 1132.871094 1115.898438 1123.480469 1104.578125 1123.339844 1090.398438 L 1123.308594 1087.390625 C 1123.171875 1073.21875 1132.339844 1061.71875 1143.859375 1061.601562 "/>
<path fill-rule="nonzero" fill="rgb(100%, 82.8125%, 45.092773%)" fill-opacity="1" d="M 531.09375 1218.121094 C 531.472656 1217.691406 531.929688 1217.308594 532.390625 1216.96875 L 539.691406 1211.871094 L 610.925781 1162.371094 C 621.03125 1155.320312 646.605469 1175.308594 668.246094 1207.148438 L 672.570312 1213.480469 C 674.714844 1216.699219 676.816406 1219.851562 678.707031 1223.03125 L 678.953125 1222.871094 L 761.382812 1344.148438 L 843.8125 1465.429688 L 926.246094 1586.710938 L 1008.679688 1707.988281 L 1173.539062 1950.550781 L 1058.46875 2030.503906 L 976.035156 1909.21875 L 893.605469 1787.941406 L 811.171875 1666.660156 L 728.742188 1545.378906 L 646.308594 1424.101562 L 563.882812 1302.820312 L 564.128906 1302.648438 C 561.890625 1299.710938 559.679688 1296.640625 557.507812 1293.441406 L 553.183594 1287.109375 C 532.558594 1256.761719 523.164062 1226.921875 531.089844 1218.101562 "/>
<path fill-rule="nonzero" fill="rgb(100%, 82.8125%, 45.092773%)" fill-opacity="1" d="M 1173.53125 1950.578125 L 1058.460938 2030.53125 L 1234.421875 2164.789062 Z M 1173.53125 1950.578125 "/>
<path fill-rule="nonzero" fill="rgb(100%, 100%, 100%)" fill-opacity="1" d="M 1234.421875 2164.789062 L 1198.820312 2137.425781 L 1221.949219 2121.359375 Z M 1234.421875 2164.789062 "/>
<path fill-rule="nonzero" fill="rgb(100%, 100%, 100%)" fill-opacity="1" d="M 1234.421875 2164.789062 L 1198.820312 2137.425781 L 1204.980469 2133.835938 L 1234.421875 2164.789062 "/>
<path fill-rule="nonzero" fill="rgb(100%, 100%, 100%)" fill-opacity="1" d="M 1234.191406 2164.949219 L 1204.980469 2133.835938 L 1216.070312 2125.816406 Z M 1234.191406 2164.949219 "/>
<path fill-rule="nonzero" fill="rgb(100%, 100%, 100%)" fill-opacity="1" d="M 1806.949219 2048.027344 C 1806.949219 2089.761719 1824.039062 2129.785156 1854.449219 2159.296875 C 1884.871094 2188.804688 1926.121094 2205.386719 1969.140625 2205.386719 C 2058.710938 2205.382812 2131.320312 2134.933594 2131.320312 2048.027344 C 2131.320312 1961.121094 2058.710938 1890.671875 1969.140625 1890.671875 C 1926.121094 1890.671875 1884.871094 1907.25 1854.449219 1936.761719 C 1824.039062 1966.269531 1806.949219 2006.296875 1806.949219 2048.027344 "/>
<path fill-rule="nonzero" fill="rgb(100%, 90.234375%, 50.193787%)" fill-opacity="1" d="M 1969.359375 2119.644531 L 2068.691406 2027.234375 C 2079.210938 2017.445312 2082.148438 2000.878906 2072.210938 1986.261719 L 2070.101562 1983.148438 C 2060.160156 1968.53125 2041.230469 1961.550781 2030.699219 1971.339844 L 1931.371094 2063.75 C 1920.839844 2073.539062 1917.910156 2090.105469 1927.851562 2104.726562 L 1929.960938 2107.835938 C 1939.898438 2122.457031 1958.828125 2129.433594 1969.359375 2119.644531 "/>
<path fill-rule="nonzero" fill="rgb(100%, 90.234375%, 50.193787%)" fill-opacity="1" d="M 1985.320312 2078.050781 L 1936.890625 2022.695312 C 1927.421875 2011.878906 1910.53125 2009.238281 1895.910156 2019.175781 L 1892.800781 2021.285156 C 1878.179688 2031.226562 1871.53125 2049.867188 1881 2060.683594 L 1929.421875 2116.035156 C 1938.890625 2126.855469 1955.78125 2129.496094 1970.398438 2119.558594 L 1973.511719 2117.449219 C 1988.128906 2107.511719 1994.78125 2088.867188 1985.320312 2078.050781 "/>
</svg>
