<?xml version="1.0" encoding="UTF-8"?>
<svg xmlns="http://www.w3.org/2000/svg" xmlns:xlink="http://www.w3.org/1999/xlink" width="3872.98" height="3872.98" viewBox="0 0 3872.98 3872.98">
<defs>
<clipPath id="clip-0">
<path clip-rule="nonzero" d="M 1054 697 L 2819 697 L 2819 3176 L 1054 3176 Z M 1054 697 "/>
</clipPath>
<clipPath id="clip-1">
<path clip-rule="evenodd" d="M 2291.898438 2739.050781 L 1801.710938 2739.050781 C 1759.140625 2739.050781 1759.140625 2673.078125 1801.710938 2673.078125 L 2291.898438 2673.078125 C 2334.46875 2673.078125 2334.488281 2739.050781 2291.898438 2739.050781 Z M 2389.269531 2529.101562 L 1801.710938 2529.101562 C 1759.140625 2529.101562 1759.140625 2463.128906 1801.710938 2463.128906 L 2389.269531 2463.128906 C 2431.839844 2463.128906 2431.859375 2529.101562 2389.269531 2529.101562 Z M 2389.269531 1967.519531 L 1801.710938 1967.519531 C 1759.140625 1967.519531 1759.140625 1901.539062 1801.710938 1901.539062 L 2389.269531 1901.539062 C 2431.839844 1901.539062 2431.859375 1967.519531 2389.269531 1967.519531 Z M 2389.269531 2177.449219 L 1801.710938 2177.449219 C 1759.140625 2177.449219 1759.140625 2111.480469 1801.710938 2111.480469 L 2389.269531 2111.480469 C 2431.839844 2111.480469 2431.859375 2177.449219 2389.269531 2177.449219 Z M 2389.269531 1405.941406 L 1801.710938 1405.941406 C 1759.140625 1405.941406 1759.140625 1339.96875 1801.710938 1339.96875 L 2389.269531 1339.96875 C 2431.839844 1339.96875 2431.859375 1405.941406 2389.269531 1405.941406 Z M 2389.269531 1615.871094 L 1801.710938 1615.871094 C 1759.140625 1615.871094 1759.140625 1549.898438 1801.710938 1549.898438 L 2389.269531 1549.898438 C 2431.839844 1549.898438 2431.859375 1615.871094 2389.269531 1615.871094 Z M 1389.398438 1566.199219 C 1366.671875 1566.199219 1334.539062 1525.011719 1318.96875 1509.441406 C 1288.871094 1479.328125 1335.519531 1432.671875 1365.621094 1462.78125 L 1389.398438 1486.558594 L 1476.660156 1399.300781 C 1506.769531 1369.191406 1553.421875 1415.851562 1523.308594 1445.960938 L 1412.730469 1556.539062 C 1406.539062 1562.71875 1398.128906 1566.199219 1389.398438 1566.199219 Z M 1275.261719 2746.96875 L 1275.261719 2455.210938 L 1566.988281 2455.210938 L 1566.988281 2746.96875 Z M 1599.988281 2812.921875 L 1242.269531 2812.921875 C 1224.058594 2812.921875 1209.28125 2798.148438 1209.28125 2779.921875 L 1209.28125 2422.230469 C 1209.28125 2403.988281 1224.058594 2389.230469 1242.269531 2389.230469 L 1599.988281 2389.230469 C 1618.210938 2389.230469 1632.980469 2403.988281 1632.980469 2422.230469 L 1632.980469 2779.941406 C 1632.980469 2798.148438 1618.210938 2812.921875 1599.988281 2812.921875 Z M 1275.261719 2185.390625 L 1275.261719 1893.628906 L 1566.988281 1893.628906 L 1566.988281 2185.390625 Z M 1599.988281 2251.359375 L 1242.269531 2251.359375 C 1224.058594 2251.359375 1209.28125 2236.589844 1209.28125 2218.359375 L 1209.28125 1860.640625 C 1209.28125 1842.429688 1224.058594 1827.648438 1242.269531 1827.648438 L 1599.988281 1827.648438 C 1618.210938 1827.648438 1632.980469 1842.429688 1632.980469 1860.640625 L 1632.980469 2218.359375 C 1632.980469 2236.589844 1618.210938 2251.359375 1599.988281 2251.359375 Z M 1275.261719 1623.78125 L 1275.261719 1332.039062 L 1566.988281 1332.039062 L 1566.988281 1623.78125 Z M 1599.988281 1689.75 L 1242.269531 1689.75 C 1224.058594 1689.75 1209.28125 1675 1209.28125 1656.769531 L 1209.28125 1299.050781 C 1209.28125 1280.828125 1224.058594 1266.058594 1242.269531 1266.058594 L 1599.988281 1266.058594 C 1618.210938 1266.058594 1632.980469 1280.828125 1632.980469 1299.050781 L 1632.980469 1656.769531 C 1632.980469 1675 1618.210938 1689.75 1599.988281 1689.75 Z M 1120.191406 2895.988281 L 2327.441406 2895.988281 C 2342.148438 2786.230469 2429.28125 2699.140625 2539.019531 2684.398438 L 2539.011719 1058.769531 L 2167.128906 1058.769531 L 2167.109375 1150.910156 C 2166.691406 1168.710938 2152.101562 1183.039062 2134.171875 1183.039062 L 1525.070312 1183.039062 C 1506.421875 1183.039062 1492.078125 1167.71875 1492.078125 1150.039062 L 1492.078125 1058.769531 L 1120.191406 1058.769531 Z M 2572.890625 2748.171875 C 2494.488281 2749.191406 2428 2796.410156 2402.21875 2866.878906 C 2361.160156 2979 2442.820312 3109.769531 2572.019531 3109.769531 C 2671.71875 3109.769531 2752.820312 3028.640625 2752.820312 2928.96875 C 2752.820312 2829.570312 2672.171875 2748.640625 2572.890625 2748.171875 Z M 2101.179688 1117.050781 L 1558.070312 1117.050781 L 1558.070312 944.160156 L 1748.441406 944.171875 C 1776.351562 944.171875 1791.648438 910.078125 1773.089844 889.25 C 1731.070312 842.078125 1764.980469 763.230469 1829.628906 763.230469 C 1894.289062 763.230469 1928.191406 842.070312 1886.179688 889.25 C 1867.621094 910.078125 1882.910156 944.191406 1910.820312 944.191406 L 2101.191406 944.191406 Z M 2327.480469 2961.941406 C 2343.628906 3082.460938 2447.128906 3175.738281 2572.019531 3175.738281 C 2708.078125 3175.738281 2818.769531 3065.03125 2818.769531 2928.96875 C 2818.769531 2804.109375 2725.519531 2700.621094 2605.019531 2684.441406 L 2605.019531 1025.789062 C 2605.019531 1007.570312 2590.238281 992.800781 2572.019531 992.800781 L 2167.128906 992.800781 L 2167.128906 911.199219 C 2167.128906 892.988281 2152.351562 878.210938 2134.128906 878.210938 L 1965.730469 878.210938 C 1991.269531 789.601562 1923.109375 697.261719 1829.601562 697.261719 C 1736.039062 697.261719 1667.960938 789.578125 1693.480469 878.210938 L 1525.070312 878.210938 C 1506.851562 878.210938 1492.078125 892.988281 1492.078125 911.199219 L 1492.078125 992.800781 L 1087.210938 992.800781 C 1068.988281 992.800781 1054.21875 1007.570312 1054.21875 1025.789062 L 1054.21875 2928.96875 C 1054.21875 2947.171875 1068.988281 2961.941406 1087.210938 2961.941406 Z M 2540.25 3017.261719 C 2517.53125 3017.261719 2485.398438 2976.070312 2469.839844 2960.488281 C 2439.761719 2930.390625 2486.429688 2883.738281 2516.53125 2913.859375 L 2540.269531 2937.640625 L 2627.511719 2850.371094 C 2657.609375 2820.269531 2704.261719 2866.898438 2674.179688 2897.019531 L 2563.609375 3007.609375 C 2557.398438 3013.769531 2549.011719 3017.261719 2540.25 3017.261719 "/>
</clipPath>
<linearGradient id="linear-pattern-0" gradientUnits="userSpaceOnUse" x1="0" y1="0" x2="1" y2="0" gradientTransform="matrix(1764.55, 0, 0, 1764.55, 1054.22, 1936.5)">
<stop offset="0" stop-color="rgb(94.508362%, 95.684814%, 98.03772%)" stop-opacity="1"/>
<stop offset="0.0078125" stop-color="rgb(94.314575%, 95.552063%, 97.976685%)" stop-opacity="1"/>
<stop offset="0.015625" stop-color="rgb(93.928528%, 95.285034%, 97.854614%)" stop-opacity="1"/>
<stop offset="0.0234375" stop-color="rgb(93.54248%, 95.018005%, 97.732544%)" stop-opacity="1"/>
<stop offset="0.03125" stop-color="rgb(93.156433%, 94.752502%, 97.608948%)" stop-opacity="1"/>
<stop offset="0.0390625" stop-color="rgb(92.771912%, 94.485474%, 97.486877%)" stop-opacity="1"/>
<stop offset="0.046875" stop-color="rgb(92.385864%, 94.218445%, 97.364807%)" stop-opacity="1"/>
<stop offset="0.0546875" stop-color="rgb(91.999817%, 93.952942%, 97.241211%)" stop-opacity="1"/>
<stop offset="0.0625" stop-color="rgb(91.61377%, 93.685913%, 97.119141%)" stop-opacity="1"/>
<stop offset="0.0703125" stop-color="rgb(91.227722%, 93.418884%, 96.99707%)" stop-opacity="1"/>
<stop offset="0.078125" stop-color="rgb(90.841675%, 93.153381%, 96.873474%)" stop-opacity="1"/>
<stop offset="0.0859375" stop-color="rgb(90.455627%, 92.886353%, 96.751404%)" stop-opacity="1"/>
<stop offset="0.09375" stop-color="rgb(90.06958%, 92.619324%, 96.629333%)" stop-opacity="1"/>
<stop offset="0.101562" stop-color="rgb(89.683533%, 92.353821%, 96.505737%)" stop-opacity="1"/>
<stop offset="0.109375" stop-color="rgb(89.297485%, 92.086792%, 96.383667%)" stop-opacity="1"/>
<stop offset="0.117188" stop-color="rgb(88.911438%, 91.819763%, 96.261597%)" stop-opacity="1"/>
<stop offset="0.125" stop-color="rgb(88.525391%, 91.55426%, 96.138%)" stop-opacity="1"/>
<stop offset="0.132813" stop-color="rgb(88.139343%, 91.287231%, 96.01593%)" stop-opacity="1"/>
<stop offset="0.140625" stop-color="rgb(87.753296%, 91.020203%, 95.89386%)" stop-opacity="1"/>
<stop offset="0.148438" stop-color="rgb(87.367249%, 90.7547%, 95.77179%)" stop-opacity="1"/>
<stop offset="0.15625" stop-color="rgb(86.981201%, 90.487671%, 95.648193%)" stop-opacity="1"/>
<stop offset="0.164063" stop-color="rgb(86.595154%, 90.220642%, 95.526123%)" stop-opacity="1"/>
<stop offset="0.171875" stop-color="rgb(86.209106%, 89.953613%, 95.404053%)" stop-opacity="1"/>
<stop offset="0.179688" stop-color="rgb(85.823059%, 89.68811%, 95.280457%)" stop-opacity="1"/>
<stop offset="0.1875" stop-color="rgb(85.437012%, 89.421082%, 95.158386%)" stop-opacity="1"/>
<stop offset="0.195312" stop-color="rgb(85.050964%, 89.154053%, 95.036316%)" stop-opacity="1"/>
<stop offset="0.203125" stop-color="rgb(84.664917%, 88.88855%, 94.91272%)" stop-opacity="1"/>
<stop offset="0.210938" stop-color="rgb(84.27887%, 88.621521%, 94.790649%)" stop-opacity="1"/>
<stop offset="0.21875" stop-color="rgb(83.892822%, 88.354492%, 94.668579%)" stop-opacity="1"/>
<stop offset="0.226562" stop-color="rgb(83.506775%, 88.088989%, 94.544983%)" stop-opacity="1"/>
<stop offset="0.234375" stop-color="rgb(83.120728%, 87.82196%, 94.422913%)" stop-opacity="1"/>
<stop offset="0.242188" stop-color="rgb(82.73468%, 87.554932%, 94.300842%)" stop-opacity="1"/>
<stop offset="0.25" stop-color="rgb(82.348633%, 87.289429%, 94.177246%)" stop-opacity="1"/>
<stop offset="0.257813" stop-color="rgb(81.962585%, 87.0224%, 94.055176%)" stop-opacity="1"/>
<stop offset="0.265625" stop-color="rgb(81.576538%, 86.755371%, 93.933105%)" stop-opacity="1"/>
<stop offset="0.273438" stop-color="rgb(81.190491%, 86.489868%, 93.809509%)" stop-opacity="1"/>
<stop offset="0.28125" stop-color="rgb(80.804443%, 86.222839%, 93.687439%)" stop-opacity="1"/>
<stop offset="0.289063" stop-color="rgb(80.418396%, 85.955811%, 93.565369%)" stop-opacity="1"/>
<stop offset="0.296875" stop-color="rgb(80.032349%, 85.690308%, 93.443298%)" stop-opacity="1"/>
<stop offset="0.304688" stop-color="rgb(79.646301%, 85.423279%, 93.319702%)" stop-opacity="1"/>
<stop offset="0.3125" stop-color="rgb(79.260254%, 85.15625%, 93.197632%)" stop-opacity="1"/>
<stop offset="0.320313" stop-color="rgb(78.874207%, 84.889221%, 93.075562%)" stop-opacity="1"/>
<stop offset="0.328125" stop-color="rgb(78.488159%, 84.623718%, 92.951965%)" stop-opacity="1"/>
<stop offset="0.335938" stop-color="rgb(78.102112%, 84.356689%, 92.829895%)" stop-opacity="1"/>
<stop offset="0.34375" stop-color="rgb(77.716064%, 84.089661%, 92.707825%)" stop-opacity="1"/>
<stop offset="0.351563" stop-color="rgb(77.330017%, 83.824158%, 92.584229%)" stop-opacity="1"/>
<stop offset="0.359375" stop-color="rgb(76.94397%, 83.557129%, 92.462158%)" stop-opacity="1"/>
<stop offset="0.367188" stop-color="rgb(76.557922%, 83.2901%, 92.340088%)" stop-opacity="1"/>
<stop offset="0.375" stop-color="rgb(76.171875%, 83.024597%, 92.216492%)" stop-opacity="1"/>
<stop offset="0.382812" stop-color="rgb(75.785828%, 82.757568%, 92.094421%)" stop-opacity="1"/>
<stop offset="0.390625" stop-color="rgb(75.39978%, 82.49054%, 91.972351%)" stop-opacity="1"/>
<stop offset="0.398438" stop-color="rgb(75.013733%, 82.225037%, 91.848755%)" stop-opacity="1"/>
<stop offset="0.40625" stop-color="rgb(74.627686%, 81.958008%, 91.726685%)" stop-opacity="1"/>
<stop offset="0.414062" stop-color="rgb(74.241638%, 81.690979%, 91.604614%)" stop-opacity="1"/>
<stop offset="0.421875" stop-color="rgb(73.855591%, 81.425476%, 91.482544%)" stop-opacity="1"/>
<stop offset="0.429688" stop-color="rgb(73.469543%, 81.158447%, 91.358948%)" stop-opacity="1"/>
<stop offset="0.4375" stop-color="rgb(73.083496%, 80.891418%, 91.236877%)" stop-opacity="1"/>
<stop offset="0.445312" stop-color="rgb(72.697449%, 80.625916%, 91.114807%)" stop-opacity="1"/>
<stop offset="0.453125" stop-color="rgb(72.311401%, 80.358887%, 90.991211%)" stop-opacity="1"/>
<stop offset="0.460938" stop-color="rgb(71.925354%, 80.091858%, 90.869141%)" stop-opacity="1"/>
<stop offset="0.46875" stop-color="rgb(71.539307%, 79.826355%, 90.74707%)" stop-opacity="1"/>
<stop offset="0.476562" stop-color="rgb(71.153259%, 79.559326%, 90.623474%)" stop-opacity="1"/>
<stop offset="0.484375" stop-color="rgb(70.767212%, 79.292297%, 90.501404%)" stop-opacity="1"/>
<stop offset="0.492188" stop-color="rgb(70.381165%, 79.025269%, 90.379333%)" stop-opacity="1"/>
<stop offset="0.5" stop-color="rgb(69.995117%, 78.759766%, 90.255737%)" stop-opacity="1"/>
<stop offset="0.507813" stop-color="rgb(69.60907%, 78.492737%, 90.133667%)" stop-opacity="1"/>
<stop offset="0.515625" stop-color="rgb(69.223022%, 78.225708%, 90.011597%)" stop-opacity="1"/>
<stop offset="0.523438" stop-color="rgb(68.836975%, 77.960205%, 89.888%)" stop-opacity="1"/>
<stop offset="0.53125" stop-color="rgb(68.450928%, 77.693176%, 89.76593%)" stop-opacity="1"/>
<stop offset="0.539063" stop-color="rgb(68.06488%, 77.426147%, 89.64386%)" stop-opacity="1"/>
<stop offset="0.546875" stop-color="rgb(67.678833%, 77.160645%, 89.52179%)" stop-opacity="1"/>
<stop offset="0.554688" stop-color="rgb(67.292786%, 76.893616%, 89.398193%)" stop-opacity="1"/>
<stop offset="0.5625" stop-color="rgb(66.906738%, 76.626587%, 89.276123%)" stop-opacity="1"/>
<stop offset="0.570313" stop-color="rgb(66.520691%, 76.361084%, 89.154053%)" stop-opacity="1"/>
<stop offset="0.578125" stop-color="rgb(66.134644%, 76.094055%, 89.030457%)" stop-opacity="1"/>
<stop offset="0.585938" stop-color="rgb(65.748596%, 75.827026%, 88.908386%)" stop-opacity="1"/>
<stop offset="0.59375" stop-color="rgb(65.362549%, 75.561523%, 88.786316%)" stop-opacity="1"/>
<stop offset="0.601563" stop-color="rgb(64.976501%, 75.294495%, 88.66272%)" stop-opacity="1"/>
<stop offset="0.609375" stop-color="rgb(64.590454%, 75.027466%, 88.540649%)" stop-opacity="1"/>
<stop offset="0.617188" stop-color="rgb(64.204407%, 74.761963%, 88.418579%)" stop-opacity="1"/>
<stop offset="0.625" stop-color="rgb(63.818359%, 74.494934%, 88.294983%)" stop-opacity="1"/>
<stop offset="0.632813" stop-color="rgb(63.432312%, 74.227905%, 88.172913%)" stop-opacity="1"/>
<stop offset="0.640625" stop-color="rgb(63.046265%, 73.960876%, 88.050842%)" stop-opacity="1"/>
<stop offset="0.648438" stop-color="rgb(62.660217%, 73.695374%, 87.927246%)" stop-opacity="1"/>
<stop offset="0.65625" stop-color="rgb(62.27417%, 73.428345%, 87.805176%)" stop-opacity="1"/>
<stop offset="0.664063" stop-color="rgb(61.888123%, 73.161316%, 87.683105%)" stop-opacity="1"/>
<stop offset="0.671875" stop-color="rgb(61.502075%, 72.895813%, 87.559509%)" stop-opacity="1"/>
<stop offset="0.679688" stop-color="rgb(61.116028%, 72.628784%, 87.437439%)" stop-opacity="1"/>
<stop offset="0.6875" stop-color="rgb(60.72998%, 72.361755%, 87.315369%)" stop-opacity="1"/>
<stop offset="0.695313" stop-color="rgb(60.343933%, 72.096252%, 87.193298%)" stop-opacity="1"/>
<stop offset="0.703125" stop-color="rgb(59.957886%, 71.829224%, 87.069702%)" stop-opacity="1"/>
<stop offset="0.710938" stop-color="rgb(59.571838%, 71.562195%, 86.947632%)" stop-opacity="1"/>
<stop offset="0.71875" stop-color="rgb(59.187317%, 71.296692%, 86.825562%)" stop-opacity="1"/>
<stop offset="0.726563" stop-color="rgb(58.80127%, 71.029663%, 86.701965%)" stop-opacity="1"/>
<stop offset="0.734375" stop-color="rgb(58.415222%, 70.762634%, 86.579895%)" stop-opacity="1"/>
<stop offset="0.742188" stop-color="rgb(58.029175%, 70.497131%, 86.457825%)" stop-opacity="1"/>
<stop offset="0.75" stop-color="rgb(57.643127%, 70.230103%, 86.334229%)" stop-opacity="1"/>
<stop offset="0.757812" stop-color="rgb(57.25708%, 69.963074%, 86.212158%)" stop-opacity="1"/>
<stop offset="0.765625" stop-color="rgb(56.871033%, 69.697571%, 86.090088%)" stop-opacity="1"/>
<stop offset="0.773438" stop-color="rgb(56.484985%, 69.430542%, 85.966492%)" stop-opacity="1"/>
<stop offset="0.78125" stop-color="rgb(56.098938%, 69.163513%, 85.844421%)" stop-opacity="1"/>
<stop offset="0.789062" stop-color="rgb(55.712891%, 68.89801%, 85.722351%)" stop-opacity="1"/>
<stop offset="0.796875" stop-color="rgb(55.326843%, 68.630981%, 85.598755%)" stop-opacity="1"/>
<stop offset="0.804688" stop-color="rgb(54.940796%, 68.363953%, 85.476685%)" stop-opacity="1"/>
<stop offset="0.8125" stop-color="rgb(54.554749%, 68.096924%, 85.354614%)" stop-opacity="1"/>
<stop offset="0.820312" stop-color="rgb(54.168701%, 67.831421%, 85.232544%)" stop-opacity="1"/>
<stop offset="0.828125" stop-color="rgb(53.782654%, 67.564392%, 85.108948%)" stop-opacity="1"/>
<stop offset="0.835938" stop-color="rgb(53.396606%, 67.297363%, 84.986877%)" stop-opacity="1"/>
<stop offset="0.84375" stop-color="rgb(53.010559%, 67.03186%, 84.864807%)" stop-opacity="1"/>
<stop offset="0.851562" stop-color="rgb(52.624512%, 66.764832%, 84.741211%)" stop-opacity="1"/>
<stop offset="0.859375" stop-color="rgb(52.238464%, 66.497803%, 84.619141%)" stop-opacity="1"/>
<stop offset="0.867188" stop-color="rgb(51.852417%, 66.2323%, 84.49707%)" stop-opacity="1"/>
<stop offset="0.875" stop-color="rgb(51.46637%, 65.965271%, 84.373474%)" stop-opacity="1"/>
<stop offset="0.882812" stop-color="rgb(51.080322%, 65.698242%, 84.251404%)" stop-opacity="1"/>
<stop offset="0.890625" stop-color="rgb(50.694275%, 65.432739%, 84.129333%)" stop-opacity="1"/>
<stop offset="0.898438" stop-color="rgb(50.308228%, 65.16571%, 84.005737%)" stop-opacity="1"/>
<stop offset="0.90625" stop-color="rgb(49.92218%, 64.898682%, 83.883667%)" stop-opacity="1"/>
<stop offset="0.914062" stop-color="rgb(49.536133%, 64.633179%, 83.761597%)" stop-opacity="1"/>
<stop offset="0.921875" stop-color="rgb(49.150085%, 64.36615%, 83.638%)" stop-opacity="1"/>
<stop offset="0.929688" stop-color="rgb(48.764038%, 64.099121%, 83.51593%)" stop-opacity="1"/>
<stop offset="0.9375" stop-color="rgb(48.377991%, 63.833618%, 83.39386%)" stop-opacity="1"/>
<stop offset="0.945312" stop-color="rgb(47.991943%, 63.566589%, 83.270264%)" stop-opacity="1"/>
<stop offset="0.953125" stop-color="rgb(47.605896%, 63.299561%, 83.148193%)" stop-opacity="1"/>
<stop offset="0.960938" stop-color="rgb(47.219849%, 63.034058%, 83.026123%)" stop-opacity="1"/>
<stop offset="0.96875" stop-color="rgb(46.833801%, 62.767029%, 82.904053%)" stop-opacity="1"/>
<stop offset="0.976562" stop-color="rgb(46.447754%, 62.5%, 82.780457%)" stop-opacity="1"/>
<stop offset="0.984375" stop-color="rgb(46.061707%, 62.232971%, 82.658386%)" stop-opacity="1"/>
<stop offset="0.992188" stop-color="rgb(45.675659%, 61.967468%, 82.536316%)" stop-opacity="1"/>
<stop offset="1" stop-color="rgb(45.289612%, 61.700439%, 82.41272%)" stop-opacity="1"/>
</linearGradient>
</defs>
<path fill-rule="evenodd" fill="rgb(20.776367%, 43.138123%, 77.34375%)" fill-opacity="1" d="M 1936.488281 0 C 3001.578125 0 3872.980469 871.421875 3872.980469 1936.488281 C 3872.980469 3001.578125 3001.578125 3872.980469 1936.488281 3872.980469 C 871.414062 3872.980469 0 3001.578125 0 1936.488281 C 0 871.421875 871.414062 0 1936.488281 0 "/>
<g clip-path="url(#clip-0)">
<g clip-path="url(#clip-1)">
<path fill-rule="nonzero" fill="url(#linear-pattern-0)" d="M 1054.21875 697.261719 L 1054.21875 3175.738281 L 2818.769531 3175.738281 L 2818.769531 697.261719 Z M 1054.21875 697.261719 "/>
</g>
</g>
</svg>
